<svg width="41" height="41" viewBox="0 0 41 41" fill="none" xmlns="http://www.w3.org/2000/svg">
<rect width="41" height="41" fill="#777474"/>
<g clip-path="url(#clip0_0_1)">
<rect width="1440" height="4301" transform="translate(-225 -1517)" fill="white"/>
<g filter="url(#filter0_d_0_1)">
<g clip-path="url(#clip1_0_1)">
<rect x="-75.1016" y="-767" width="1140" height="910" rx="12" fill="white"/>
<circle cx="20.8789" cy="20.7617" r="20" fill="#2CB9E9"/>
<path d="M28.904 25.027L29.609 20.947C29.6504 20.7078 29.639 20.4626 29.5757 20.2283C29.5123 19.994 29.3986 19.7764 29.2424 19.5906C29.0862 19.4049 28.8913 19.2556 28.6713 19.153C28.4514 19.0505 28.2117 18.9972 27.969 18.997H22.788C22.6671 18.997 22.5476 18.9707 22.4379 18.9199C22.3282 18.8691 22.2308 18.795 22.1526 18.7028C22.0744 18.6106 22.0172 18.5025 21.9849 18.386C21.9527 18.2694 21.9462 18.1473 21.966 18.028L22.629 13.983C22.7366 13.3262 22.7059 12.6542 22.539 12.01C22.4676 11.7438 22.33 11.5 22.1391 11.3012C21.9482 11.1024 21.7101 10.9551 21.447 10.873L21.302 10.826C20.9742 10.7207 20.6184 10.745 20.308 10.894C19.968 11.058 19.72 11.357 19.628 11.712L19.152 13.546C19.0005 14.1296 18.7803 14.6932 18.496 15.225C18.081 16.002 17.439 16.625 16.771 17.2L15.332 18.44C15.1324 18.6125 14.9764 18.8298 14.877 19.0742C14.7776 19.3186 14.7375 19.5831 14.76 19.846L15.572 29.239C15.6078 29.6544 15.798 30.0413 16.1052 30.3232C16.4123 30.6052 16.814 30.7618 17.231 30.762H21.879C25.361 30.762 28.332 28.336 28.904 25.027Z" fill="white"/>
<path fill-rule="evenodd" clip-rule="evenodd" d="M12.847 17.483C13.0402 17.4746 13.2293 17.5411 13.3746 17.6688C13.52 17.7964 13.6104 17.9753 13.627 18.168L14.597 29.404C14.6134 29.5713 14.5956 29.7403 14.5445 29.9004C14.4935 30.0606 14.4103 30.2087 14.3001 30.3357C14.1899 30.4627 14.055 30.5659 13.9036 30.6389C13.7522 30.712 13.5875 30.7535 13.4195 30.7608C13.2515 30.768 13.0838 30.741 12.9267 30.6813C12.7695 30.6216 12.6261 30.5305 12.5054 30.4135C12.3846 30.2966 12.2889 30.1562 12.2242 30.001C12.1595 29.8459 12.1271 29.6791 12.129 29.511V18.232C12.1291 18.0387 12.2038 17.8529 12.3376 17.7133C12.4713 17.5738 12.6538 17.4913 12.847 17.483Z" fill="white"/>
</g>
</g>
</g>
<defs>
<filter id="filter0_d_0_1" x="-100.102" y="-788" width="1190" height="960" filterUnits="userSpaceOnUse" color-interpolation-filters="sRGB">
<feFlood flood-opacity="0" result="BackgroundImageFix"/>
<feColorMatrix in="SourceAlpha" type="matrix" values="0 0 0 0 0 0 0 0 0 0 0 0 0 0 0 0 0 0 127 0" result="hardAlpha"/>
<feOffset dy="4"/>
<feGaussianBlur stdDeviation="12.5"/>
<feComposite in2="hardAlpha" operator="out"/>
<feColorMatrix type="matrix" values="0 0 0 0 0 0 0 0 0 0 0 0 0 0 0 0 0 0 0.08 0"/>
<feBlend mode="normal" in2="BackgroundImageFix" result="effect1_dropShadow_0_1"/>
<feBlend mode="normal" in="SourceGraphic" in2="effect1_dropShadow_0_1" result="shape"/>
</filter>
<clipPath id="clip0_0_1">
<rect width="1440" height="4301" fill="white" transform="translate(-225 -1517)"/>
</clipPath>
<clipPath id="clip1_0_1">
<rect x="-75.1016" y="-767" width="1140" height="910" rx="12" fill="white"/>
</clipPath>
</defs>
</svg>
