<svg width="41" height="41" viewBox="0 0 41 41" fill="none" xmlns="http://www.w3.org/2000/svg">
<rect width="41" height="41" fill="#777474"/>
<g clip-path="url(#clip0_0_1)">
<rect width="1440" height="4301" transform="translate(-167 -1517)" fill="white"/>
<g filter="url(#filter0_d_0_1)">
<g clip-path="url(#clip1_0_1)">
<rect x="-17.1016" y="-767" width="1140" height="910" rx="12" fill="white"/>
<circle cx="20.8789" cy="20.7617" r="20" fill="#FF0606"/>
<path d="M15.3309 10.1827C11.5864 10.1827 8.55078 13.2183 8.55078 16.9629C8.55078 23.743 16.5637 29.9068 20.8783 31.3406C25.193 29.9068 33.2059 23.743 33.2059 16.9629C33.2059 13.2183 30.1703 10.1827 26.4257 10.1827C24.1326 10.1827 22.1053 11.3211 20.8783 13.0636C19.6513 11.3211 17.624 10.1827 15.3309 10.1827Z" fill="white"/>
</g>
</g>
</g>
<defs>
<filter id="filter0_d_0_1" x="-42.1016" y="-788" width="1190" height="960" filterUnits="userSpaceOnUse" color-interpolation-filters="sRGB">
<feFlood flood-opacity="0" result="BackgroundImageFix"/>
<feColorMatrix in="SourceAlpha" type="matrix" values="0 0 0 0 0 0 0 0 0 0 0 0 0 0 0 0 0 0 127 0" result="hardAlpha"/>
<feOffset dy="4"/>
<feGaussianBlur stdDeviation="12.5"/>
<feComposite in2="hardAlpha" operator="out"/>
<feColorMatrix type="matrix" values="0 0 0 0 0 0 0 0 0 0 0 0 0 0 0 0 0 0 0.08 0"/>
<feBlend mode="normal" in2="BackgroundImageFix" result="effect1_dropShadow_0_1"/>
<feBlend mode="normal" in="SourceGraphic" in2="effect1_dropShadow_0_1" result="shape"/>
</filter>
<clipPath id="clip0_0_1">
<rect width="1440" height="4301" fill="white" transform="translate(-167 -1517)"/>
</clipPath>
<clipPath id="clip1_0_1">
<rect x="-17.1016" y="-767" width="1140" height="910" rx="12" fill="white"/>
</clipPath>
</defs>
</svg>
